{
  "accessors": [
    {
      "bufferView": 2,
      "componentType": 5126,
      "count": 3063,
      "max": [
        0.316749632358551,
        0.316749632358551,
        2.2839269638061523
      ],
      "min": [
        -0.316749632358551,
        -0.316749632358551,
        -0.11233192682266235
      ],
      "type": "VEC3"
    },
    {
      "bufferView": 2,
      "byteOffset": 36756,
      "componentType": 5126,
      "count": 3063,
      "max": [
        1.0,
        1.0,
        1.0
      ],
      "min": [
        -1.0,
        -1.0,
        -1.0
      ],
      "type": "VEC3"
    },
    {
      "bufferView": 3,
      "componentType": 5126,
      "count": 3063,
      "max": [
        1.0,
        1.0,
        1.0,
        1.0
      ],
      "min": [
        -1.0,
        -1.0,
        -1.0,
        1.0
      ],
      "type": "VEC4"
    },
    {
      "bufferView": 1,
      "componentType": 5126,
      "count": 3063,
      "max": [
        0.8333888053894043,
        0.9999999403953552
      ],
      "min": [
        2.294044815220886e-10,
        0.0
      ],
      "type": "VEC2"
    },
    {
      "bufferView": 1,
      "byteOffset": 24504,
      "componentType": 5126,
      "count": 3063,
      "max": [
        0.8947341442108154,
        1.511493444442749
      ],
      "min": [
        0.0,
        -0.5233337879180908
      ],
      "type": "VEC2"
    },
    {
      "bufferView": 1,
      "byteOffset": 49008,
      "componentType": 5126,
      "count": 3063,
      "max": [
        0.8333888053894043,
        0.9999999403953552
      ],
      "min": [
        2.294044815220886e-10,
        0.0
      ],
      "type": "VEC2"
    },
    {
      "bufferView": 0,
      "componentType": 5125,
      "count": 11202,
      "type": "SCALAR"
    }
  ],
  "asset": {
    "extras": {
      "author": "notmybest3d (https://sketchfab.com/notmybest3d)",
      "license": "CC-BY-4.0 (http://creativecommons.org/licenses/by/4.0/)",
      "source": "https://sketchfab.com/3d-models/doric-marble-column-85e3a12f3b6c409cb1e6a8928e610c63",
      "title": "Doric Marble Column"
    },
    "generator": "Sketchfab-16.21.0",
    "version": "2.0"
  },
  "bufferViews": [
    {
      "buffer": 0,
      "byteLength": 44808,
      "name": "floatBufferViews",
      "target": 34963
    },
    {
      "buffer": 0,
      "byteLength": 73512,
      "byteOffset": 44808,
      "byteStride": 8,
      "name": "floatBufferViews",
      "target": 34962
    },
    {
      "buffer": 0,
      "byteLength": 73512,
      "byteOffset": 118320,
      "byteStride": 12,
      "name": "floatBufferViews",
      "target": 34962
    },
    {
      "buffer": 0,
      "byteLength": 49008,
      "byteOffset": 191832,
      "byteStride": 16,
      "name": "floatBufferViews",
      "target": 34962
    }
  ],
  "buffers": [
    {
      "byteLength": 240840,
      "uri": "scene.bin"
    }
  ],
  "images": [
    {
      "uri": "textures/Mar_Baked_baseColor.png"
    },
    {
      "uri": "textures/Mar_Baked_metallicRoughness.png"
    },
    {
      "uri": "textures/Mar_Baked_normal.png"
    }
  ],
  "materials": [
    {
      "doubleSided": true,
      "name": "Mar_Baked",
      "normalTexture": {
        "index": 2
      },
      "pbrMetallicRoughness": {
        "baseColorTexture": {
          "index": 0
        },
        "metallicFactor": 0.0,
        "metallicRoughnessTexture": {
          "index": 1
        }
      }
    }
  ],
  "meshes": [
    {
      "name": "Colonne_Marbre_Bake_Mar Baked_0",
      "primitives": [
        {
          "attributes": {
            "NORMAL": 1,
            "POSITION": 0,
            "TANGENT": 2,
            "TEXCOORD_0": 3,
            "TEXCOORD_1": 4,
            "TEXCOORD_2": 5
          },
          "indices": 6,
          "material": 0,
          "mode": 4
        }
      ]
    }
  ],
  "nodes": [
    {
      "children": [
        1
      ],
      "matrix": [
        1.0,
        0.0,
        0.0,
        0.0,
        0.0,
        2.220446049250313e-16,
        -1.0,
        0.0,
        0.0,
        1.0,
        2.220446049250313e-16,
        0.0,
        0.0,
        0.0,
        0.0,
        1.0
      ],
      "name": "Sketchfab_model"
    },
    {
      "children": [
        2
      ],
      "matrix": [
        0.009999999776482582,
        0.0,
        0.0,
        0.0,
        0.0,
        0.0,
        0.009999999776482582,
        0.0,
        0.0,
        -0.009999999776482582,
        0.0,
        0.0,
        0.0,
        0.0,
        0.0,
        1.0
      ],
      "name": "843d4a7069944be69e96d7068750633f.fbx"
    },
    {
      "children": [
        3
      ],
      "name": "RootNode"
    },
    {
      "children": [
        4
      ],
      "matrix": [
        100.0,
        0.0,
        0.0,
        0.0,
        0.0,
        -1.629206793918314e-05,
        -99.99999999999868,
        0.0,
        0.0,
        99.99999999999868,
        -1.629206793918314e-05,
        0.0,
        0.2002716064453125,
        11.16642951965332,
        0.08950233459472656,
        1.0
      ],
      "name": "Colonne_Marbre_Bake"
    },
    {
      "mesh": 0,
      "name": "Colonne_Marbre_Bake_Mar Baked_0"
    }
  ],
  "samplers": [
    {
      "magFilter": 9729,
      "minFilter": 9987,
      "wrapS": 10497,
      "wrapT": 10497
    }
  ],
  "scene": 0,
  "scenes": [
    {
      "name": "Sketchfab_Scene",
      "nodes": [
        0
      ]
    }
  ],
  "textures": [
    {
      "sampler": 0,
      "source": 0
    },
    {
      "sampler": 0,
      "source": 1
    },
    {
      "sampler": 0,
      "source": 2
    }
  ]
}
